<svg width="140" height="140" viewBox="0 0 140 140" fill="none" xmlns="http://www.w3.org/2000/svg">
<path fill-rule="evenodd" clip-rule="evenodd" d="M70 138C107.555 138 138 107.555 138 70C138 32.4446 107.555 2 70 2C32.4446 2 2 32.4446 2 70C2 107.555 32.4446 138 70 138ZM70 140C108.66 140 140 108.66 140 70C140 31.3401 108.66 0 70 0C31.3401 0 0 31.3401 0 70C0 108.66 31.3401 140 70 140Z" fill="url(#paint0_linear_1_987)"/>
<path d="M42.556 53.3506C44.068 53.3506 45.328 53.7226 46.336 54.4666C47.344 55.2106 48.01 56.2246 48.334 57.5086H46.174C45.898 56.8246 45.442 56.2786 44.806 55.8706C44.182 55.4626 43.438 55.2586 42.574 55.2586C41.782 55.2586 41.068 55.4446 40.432 55.8166C39.808 56.1886 39.316 56.7166 38.956 57.4006C38.608 58.0846 38.434 58.8886 38.434 59.8126C38.434 60.7846 38.614 61.6186 38.974 62.3146C39.334 63.0106 39.838 63.5446 40.486 63.9166C41.146 64.2766 41.908 64.4566 42.772 64.4566C43.828 64.4566 44.734 64.1326 45.49 63.4846C46.246 62.8246 46.702 61.9246 46.858 60.7846H42.196V59.2726H48.586V61.2346C48.442 62.1706 48.106 63.0226 47.578 63.7906C47.062 64.5466 46.372 65.1526 45.508 65.6086C44.656 66.0646 43.678 66.2926 42.574 66.2926C41.338 66.2926 40.246 66.0166 39.298 65.4646C38.35 64.9126 37.618 64.1506 37.102 63.1786C36.586 62.1946 36.328 61.0726 36.328 59.8126C36.328 58.5526 36.586 57.4366 37.102 56.4646C37.618 55.4806 38.344 54.7186 39.28 54.1786C40.228 53.6266 41.32 53.3506 42.556 53.3506ZM59.8799 60.7306C59.8799 61.0666 59.8559 61.3606 59.8079 61.6126H52.1759C52.2119 62.6326 52.4939 63.3886 53.0219 63.8806C53.5499 64.3726 54.2039 64.6186 54.9839 64.6186C55.6679 64.6186 56.2439 64.4446 56.7119 64.0966C57.1919 63.7486 57.4859 63.2866 57.5939 62.7106H59.7899C59.6579 63.4066 59.3819 64.0246 58.9619 64.5646C58.5419 65.1046 57.9959 65.5306 57.3239 65.8426C56.6519 66.1426 55.9019 66.2926 55.0739 66.2926C54.1139 66.2926 53.2619 66.0886 52.5179 65.6806C51.7859 65.2726 51.2099 64.6846 50.7899 63.9166C50.3699 63.1486 50.1599 62.2426 50.1599 61.1986C50.1599 60.1666 50.3699 59.2666 50.7899 58.4986C51.2099 57.7306 51.7859 57.1426 52.5179 56.7346C53.2619 56.3266 54.1139 56.1226 55.0739 56.1226C56.0459 56.1226 56.8919 56.3266 57.6119 56.7346C58.3439 57.1306 58.9019 57.6826 59.2859 58.3906C59.6819 59.0866 59.8799 59.8666 59.8799 60.7306ZM57.8099 60.6766C57.8339 60.0286 57.7199 59.4886 57.4679 59.0566C57.2279 58.6126 56.8919 58.2886 56.4599 58.0846C56.0399 57.8686 55.5779 57.7606 55.0739 57.7606C54.2699 57.7606 53.5979 58.0066 53.0579 58.4986C52.5179 58.9906 52.2239 59.7166 52.1759 60.6766H57.8099ZM66.8471 64.3846V66.1666H65.5871C64.5311 66.1666 63.7271 65.9146 63.1751 65.4106C62.6351 64.8946 62.3651 64.0426 62.3651 62.8546V57.9946H60.9431V56.2486H62.3651V53.7826H64.4351V56.2486H66.8291V57.9946H64.4351V62.8906C64.4351 63.4546 64.5371 63.8446 64.7411 64.0606C64.9571 64.2766 65.3291 64.3846 65.8571 64.3846H66.8471ZM45.094 85.7826C45.094 86.4066 44.944 86.9886 44.644 87.5286C44.344 88.0566 43.888 88.4826 43.276 88.8066C42.664 89.1306 41.914 89.2926 41.026 89.2926C40.162 89.2926 39.388 89.1426 38.704 88.8426C38.02 88.5306 37.474 88.0986 37.066 87.5466C36.658 86.9946 36.424 86.3586 36.364 85.6386H38.56C38.62 86.1906 38.854 86.6646 39.262 87.0606C39.682 87.4566 40.24 87.6546 40.936 87.6546C41.56 87.6546 42.04 87.4866 42.376 87.1506C42.724 86.8146 42.898 86.3826 42.898 85.8546C42.898 85.3986 42.772 85.0266 42.52 84.7386C42.268 84.4386 41.956 84.2046 41.584 84.0366C41.212 83.8686 40.702 83.6766 40.054 83.4606C39.262 83.2086 38.614 82.9566 38.11 82.7046C37.618 82.4526 37.198 82.0866 36.85 81.6066C36.502 81.1266 36.328 80.4966 36.328 79.7166C36.328 79.0326 36.496 78.4326 36.832 77.9166C37.168 77.4006 37.648 77.0046 38.272 76.7286C38.896 76.4406 39.616 76.2966 40.432 76.2966C41.728 76.2966 42.754 76.6086 43.51 77.2326C44.278 77.8566 44.716 78.6726 44.824 79.6806H42.61C42.526 79.2006 42.298 78.7926 41.926 78.4566C41.566 78.1086 41.068 77.9346 40.432 77.9346C39.856 77.9346 39.394 78.0846 39.046 78.3846C38.698 78.6726 38.524 79.0926 38.524 79.6446C38.524 80.0766 38.644 80.4366 38.884 80.7246C39.124 81.0006 39.424 81.2226 39.784 81.3906C40.156 81.5466 40.66 81.7326 41.296 81.9486C42.1 82.2006 42.754 82.4586 43.258 82.7226C43.774 82.9746 44.206 83.3466 44.554 83.8386C44.914 84.3306 45.094 84.9786 45.094 85.7826ZM52.1343 87.3846V89.1666H50.8743C49.8183 89.1666 49.0143 88.9146 48.4623 88.4106C47.9223 87.8946 47.6523 87.0426 47.6523 85.8546V80.9946H46.2303V79.2486H47.6523V76.7826H49.7223V79.2486H52.1163V80.9946H49.7223V85.8906C49.7223 86.4546 49.8243 86.8446 50.0283 87.0606C50.2443 87.2766 50.6163 87.3846 51.1443 87.3846H52.1343ZM58.0345 79.1226C58.9345 79.1226 59.7025 79.3446 60.3385 79.7886C60.9745 80.2326 61.4245 80.8206 61.6885 81.5526V79.2486H63.7405V89.1666H61.6885V86.8626C61.4245 87.5946 60.9745 88.1826 60.3385 88.6266C59.7025 89.0706 58.9345 89.2926 58.0345 89.2926C57.1705 89.2926 56.3965 89.0886 55.7125 88.6806C55.0405 88.2726 54.5125 87.6846 54.1285 86.9166C53.7445 86.1486 53.5525 85.2426 53.5525 84.1986C53.5525 83.1666 53.7445 82.2666 54.1285 81.4986C54.5125 80.7306 55.0405 80.1426 55.7125 79.7346C56.3965 79.3266 57.1705 79.1226 58.0345 79.1226ZM58.6645 80.9226C57.7525 80.9226 57.0205 81.2166 56.4685 81.8046C55.9285 82.3806 55.6585 83.1786 55.6585 84.1986C55.6585 85.2186 55.9285 86.0226 56.4685 86.6106C57.0205 87.1866 57.7525 87.4746 58.6645 87.4746C59.2405 87.4746 59.7565 87.3426 60.2125 87.0786C60.6685 86.8026 61.0285 86.4186 61.2925 85.9266C61.5565 85.4346 61.6885 84.8586 61.6885 84.1986C61.6885 83.5506 61.5565 82.9806 61.2925 82.4886C61.0285 81.9846 60.6685 81.6006 60.2125 81.3366C59.7565 81.0606 59.2405 80.9226 58.6645 80.9226ZM68.2549 81.1926C68.5909 80.5446 69.0709 80.0346 69.6949 79.6626C70.3189 79.2786 71.0389 79.0866 71.8549 79.0866V81.3186H71.2429C70.3429 81.3186 69.6169 81.5406 69.0649 81.9846C68.5249 82.4166 68.2549 83.1366 68.2549 84.1446V89.1666H66.2029V79.2486H68.2549V81.1926ZM78.3784 87.3846V89.1666H77.1184C76.0624 89.1666 75.2584 88.9146 74.7064 88.4106C74.1664 87.8946 73.8964 87.0426 73.8964 85.8546V80.9946H72.4744V79.2486H73.8964V76.7826H75.9664V79.2486H78.3604V80.9946H75.9664V85.8906C75.9664 86.4546 76.0684 86.8446 76.2724 87.0606C76.4884 87.2766 76.8604 87.3846 77.3884 87.3846H78.3784ZM89.5166 83.7306C89.5166 84.0666 89.4926 84.3606 89.4446 84.6126H81.8126C81.8486 85.6326 82.1306 86.3886 82.6586 86.8806C83.1866 87.3726 83.8406 87.6186 84.6206 87.6186C85.3046 87.6186 85.8806 87.4446 86.3486 87.0966C86.8286 86.7486 87.1226 86.2866 87.2306 85.7106H89.4266C89.2946 86.4066 89.0186 87.0246 88.5986 87.5646C88.1786 88.1046 87.6326 88.5306 86.9606 88.8426C86.2886 89.1426 85.5386 89.2926 84.7106 89.2926C83.7506 89.2926 82.8986 89.0886 82.1546 88.6806C81.4226 88.2726 80.8466 87.6846 80.4266 86.9166C80.0066 86.1486 79.7966 85.2426 79.7966 84.1986C79.7966 83.1666 80.0066 82.2666 80.4266 81.4986C80.8466 80.7306 81.4226 80.1426 82.1546 79.7346C82.8986 79.3266 83.7506 79.1226 84.7106 79.1226C85.6826 79.1226 86.5286 79.3266 87.2486 79.7346C87.9806 80.1306 88.5386 80.6826 88.9226 81.3906C89.3186 82.0866 89.5166 82.8666 89.5166 83.7306ZM87.4466 83.6766C87.4706 83.0286 87.3566 82.4886 87.1046 82.0566C86.8646 81.6126 86.5286 81.2886 86.0966 81.0846C85.6766 80.8686 85.2146 80.7606 84.7106 80.7606C83.9066 80.7606 83.2346 81.0066 82.6946 81.4986C82.1546 81.9906 81.8606 82.7166 81.8126 83.6766H87.4466ZM95.4759 79.1226C96.3759 79.1226 97.1439 79.3446 97.7799 79.7886C98.4159 80.2326 98.8599 80.8206 99.1119 81.5526V75.8466H101.182V89.1666H99.1119V86.8626C98.8599 87.5946 98.4159 88.1826 97.7799 88.6266C97.1439 89.0706 96.3759 89.2926 95.4759 89.2926C94.6119 89.2926 93.8379 89.0886 93.1539 88.6806C92.4819 88.2726 91.9539 87.6846 91.5699 86.9166C91.1859 86.1486 90.9939 85.2426 90.9939 84.1986C90.9939 83.1666 91.1859 82.2666 91.5699 81.4986C91.9539 80.7306 92.4819 80.1426 93.1539 79.7346C93.8379 79.3266 94.6119 79.1226 95.4759 79.1226ZM96.1059 80.9226C95.1939 80.9226 94.4619 81.2166 93.9099 81.8046C93.3699 82.3806 93.0999 83.1786 93.0999 84.1986C93.0999 85.2186 93.3699 86.0226 93.9099 86.6106C94.4619 87.1866 95.1939 87.4746 96.1059 87.4746C96.6819 87.4746 97.1979 87.3426 97.6539 87.0786C98.1099 86.8026 98.4699 86.4186 98.7339 85.9266C98.9979 85.4346 99.1299 84.8586 99.1299 84.1986C99.1299 83.5506 98.9979 82.9806 98.7339 82.4886C98.4699 81.9846 98.1099 81.6006 97.6539 81.3366C97.1979 81.0606 96.6819 80.9226 96.1059 80.9226Z" fill="url(#paint1_linear_1_987)"/>
<path d="M77.9898 65.2615C77.7559 64.9828 77.7697 64.5786 78.0079 64.3167L78.0784 64.2489L89.0903 55.0089C89.3944 54.7537 89.8477 54.7934 90.1029 55.0975C90.3368 55.3762 90.3229 55.7804 90.0848 56.0423L90.0143 56.1101L79.0024 65.3501C78.6983 65.6053 78.2449 65.5656 77.9898 65.2615Z" fill="white"/>
<path d="M81.3388 55.5797C80.9433 55.546 80.65 55.198 80.6838 54.8025C80.7144 54.4429 81.0048 54.1679 81.3545 54.1462L81.461 54.1475L89.6133 54.843C89.9739 54.8738 90.2493 55.1657 90.2698 55.5165L90.2681 55.6233L89.538 63.7732C89.5026 64.1686 89.1534 64.4604 88.758 64.425C88.3986 64.3928 88.1248 64.1012 88.1045 63.7514L88.1063 63.645L88.7715 56.2139L81.3388 55.5797Z" fill="white"/>
<defs>
<linearGradient id="paint0_linear_1_987" x1="93.5405" y1="-125.781" x2="186.413" y2="101.942" gradientUnits="userSpaceOnUse">
<stop offset="0.00887753" stop-color="#DEF9FA"/>
<stop offset="0.1723" stop-color="#BEF3F5"/>
<stop offset="0.4204" stop-color="#9DEDF0"/>
<stop offset="0.5512" stop-color="#7DE7EB"/>
<stop offset="0.7154" stop-color="#5CE1E6"/>
<stop offset="1" stop-color="#33BBCF"/>
</linearGradient>
<linearGradient id="paint1_linear_1_987" x1="91.6243" y1="-0.0495154" x2="116.466" y2="95.291" gradientUnits="userSpaceOnUse">
<stop offset="0.00887753" stop-color="#DEF9FA"/>
<stop offset="0.1723" stop-color="#BEF3F5"/>
<stop offset="0.4204" stop-color="#9DEDF0"/>
<stop offset="0.5512" stop-color="#7DE7EB"/>
<stop offset="0.7154" stop-color="#5CE1E6"/>
<stop offset="1" stop-color="#33BBCF"/>
</linearGradient>
</defs>
</svg>
